<mxfile host="Electron" modified="2024-06-21T03:58:52.537Z" agent="Mozilla/5.0 (Windows NT 10.0; Win64; x64) AppleWebKit/537.36 (KHTML, like Gecko) draw.io/23.1.5 Chrome/120.0.6099.109 Electron/28.1.0 Safari/537.36" etag="14CgBDQk-lxh52SVSO2J" version="23.1.5" type="device">
  <diagram name="第 1 页" id="Fz-PXAZVvMhDprlz4Bzt">
    <mxGraphModel dx="814" dy="674" grid="1" gridSize="10" guides="1" tooltips="1" connect="1" arrows="0" fold="1" page="1" pageScale="1" pageWidth="827" pageHeight="1169" math="1" shadow="0">
      <root>
        <mxCell id="0" />
        <mxCell id="1" parent="0" />
        <mxCell id="AXfbNB8ekgTJsQT6Qloi-42" value="&lt;div style=&quot;font-size: 13px;&quot;&gt;&lt;font style=&quot;font-size: 13px;&quot;&gt;&lt;br&gt;&lt;/font&gt;&lt;/div&gt;&lt;font style=&quot;font-size: 13px;&quot;&gt;$$W=Softmax(query\cdot key)$$&lt;/font&gt;" style="rounded=1;whiteSpace=wrap;html=1;fillColor=#ffe6cc;strokeColor=#d79b00;arcSize=12;" parent="1" vertex="1">
          <mxGeometry x="230" y="130" width="240" height="50" as="geometry" />
        </mxCell>
        <mxCell id="AXfbNB8ekgTJsQT6Qloi-34" value="&lt;font style=&quot;font-size: 15px;&quot;&gt;$$query$$&lt;/font&gt;" style="rounded=1;whiteSpace=wrap;html=1;fillColor=#e1d5e7;strokeColor=#9673a6;" parent="1" vertex="1">
          <mxGeometry x="406.5" y="205" width="65" height="35" as="geometry" />
        </mxCell>
        <mxCell id="AXfbNB8ekgTJsQT6Qloi-35" value="&lt;font style=&quot;font-size: 15px;&quot;&gt;$$key$$&lt;/font&gt;" style="rounded=1;whiteSpace=wrap;html=1;fillColor=#f8cecc;strokeColor=#b85450;" parent="1" vertex="1">
          <mxGeometry x="232" y="204" width="40" height="35" as="geometry" />
        </mxCell>
        <mxCell id="AXfbNB8ekgTJsQT6Qloi-36" value="&lt;font style=&quot;font-size: 15px;&quot;&gt;$$value$$&lt;/font&gt;" style="rounded=1;whiteSpace=wrap;html=1;fillColor=#f8cecc;strokeColor=#b85450;" parent="1" vertex="1">
          <mxGeometry x="163" y="205" width="61" height="35" as="geometry" />
        </mxCell>
        <mxCell id="AXfbNB8ekgTJsQT6Qloi-39" value="" style="endArrow=classic;html=1;rounded=0;exitX=0.319;exitY=0.02;exitDx=0;exitDy=0;entryX=0.5;entryY=1;entryDx=0;entryDy=0;exitPerimeter=0;" parent="1" source="bMq4PvRFzcCB6mcYarQN-1" target="AXfbNB8ekgTJsQT6Qloi-36" edge="1">
          <mxGeometry width="50" height="50" relative="1" as="geometry">
            <mxPoint x="190" y="337" as="sourcePoint" />
            <mxPoint x="190" y="247" as="targetPoint" />
          </mxGeometry>
        </mxCell>
        <mxCell id="AXfbNB8ekgTJsQT6Qloi-46" value="&lt;font style=&quot;font-size: 14px;&quot;&gt;$$[b, p, D]$$&lt;/font&gt;" style="text;html=1;align=center;verticalAlign=middle;whiteSpace=wrap;rounded=0;" parent="1" vertex="1">
          <mxGeometry x="355.5" y="131" width="96.5" height="20" as="geometry" />
        </mxCell>
        <mxCell id="AXfbNB8ekgTJsQT6Qloi-52" value="" style="edgeStyle=orthogonalEdgeStyle;rounded=0;orthogonalLoop=1;jettySize=auto;html=1;" parent="1" source="AXfbNB8ekgTJsQT6Qloi-47" target="AXfbNB8ekgTJsQT6Qloi-51" edge="1">
          <mxGeometry relative="1" as="geometry" />
        </mxCell>
        <mxCell id="AXfbNB8ekgTJsQT6Qloi-47" value="&lt;font style=&quot;font-size: 14px;&quot;&gt;$$O=v\cdot&lt;br&gt;W$$&lt;/font&gt;" style="rounded=1;whiteSpace=wrap;html=1;fillColor=#ffe6cc;strokeColor=#d79b00;" parent="1" vertex="1">
          <mxGeometry x="160" y="76" width="135.5" height="30" as="geometry" />
        </mxCell>
        <mxCell id="AXfbNB8ekgTJsQT6Qloi-49" value="" style="endArrow=classic;html=1;rounded=0;exitX=0.5;exitY=0;exitDx=0;exitDy=0;entryX=0.25;entryY=1;entryDx=0;entryDy=0;" parent="1" source="AXfbNB8ekgTJsQT6Qloi-36" target="AXfbNB8ekgTJsQT6Qloi-47" edge="1">
          <mxGeometry width="50" height="50" relative="1" as="geometry">
            <mxPoint x="200" y="300" as="sourcePoint" />
            <mxPoint x="190" y="90" as="targetPoint" />
          </mxGeometry>
        </mxCell>
        <mxCell id="AXfbNB8ekgTJsQT6Qloi-51" value="&lt;font face=&quot;Times New Roman&quot;&gt;&lt;span style=&quot;font-size: 14px;&quot;&gt;$$R_C:[b,D]$$&lt;/span&gt;&lt;/font&gt;" style="rounded=1;whiteSpace=wrap;html=1;fillColor=#fff2cc;strokeColor=#d6b656;" parent="1" vertex="1">
          <mxGeometry x="382.5" y="76" width="105" height="30" as="geometry" />
        </mxCell>
        <mxCell id="9QXopgQbLED8hrpfkFkD-1" value="" style="endArrow=classic;html=1;rounded=0;entryX=0.5;entryY=1;entryDx=0;entryDy=0;exitX=0.628;exitY=0.001;exitDx=0;exitDy=0;exitPerimeter=0;" parent="1" source="bMq4PvRFzcCB6mcYarQN-1" target="AXfbNB8ekgTJsQT6Qloi-35" edge="1">
          <mxGeometry width="50" height="50" relative="1" as="geometry">
            <mxPoint x="267" y="337" as="sourcePoint" />
            <mxPoint x="268" y="242" as="targetPoint" />
          </mxGeometry>
        </mxCell>
        <mxCell id="9QXopgQbLED8hrpfkFkD-3" style="edgeStyle=orthogonalEdgeStyle;rounded=0;orthogonalLoop=1;jettySize=auto;html=1;exitX=0.5;exitY=0;exitDx=0;exitDy=0;entryX=0.09;entryY=1;entryDx=0;entryDy=0;entryPerimeter=0;" parent="1" source="AXfbNB8ekgTJsQT6Qloi-35" target="AXfbNB8ekgTJsQT6Qloi-42" edge="1">
          <mxGeometry relative="1" as="geometry" />
        </mxCell>
        <mxCell id="9QXopgQbLED8hrpfkFkD-4" value="" style="endArrow=classic;html=1;rounded=0;exitX=0.092;exitY=-0.001;exitDx=0;exitDy=0;exitPerimeter=0;entryX=0.684;entryY=1.003;entryDx=0;entryDy=0;entryPerimeter=0;" parent="1" source="AXfbNB8ekgTJsQT6Qloi-42" target="AXfbNB8ekgTJsQT6Qloi-47" edge="1">
          <mxGeometry width="50" height="50" relative="1" as="geometry">
            <mxPoint x="268.534" y="129.25" as="sourcePoint" />
            <mxPoint x="270" y="90" as="targetPoint" />
          </mxGeometry>
        </mxCell>
        <mxCell id="9QXopgQbLED8hrpfkFkD-5" value="" style="endArrow=classic;html=1;rounded=0;exitX=0.5;exitY=0;exitDx=0;exitDy=0;entryX=0.854;entryY=1;entryDx=0;entryDy=0;entryPerimeter=0;" parent="1" source="AXfbNB8ekgTJsQT6Qloi-34" edge="1">
          <mxGeometry width="50" height="50" relative="1" as="geometry">
            <mxPoint x="344" y="240" as="sourcePoint" />
            <mxPoint x="438.96000000000004" y="180" as="targetPoint" />
          </mxGeometry>
        </mxCell>
        <mxCell id="bMq4PvRFzcCB6mcYarQN-1" value="&lt;font style=&quot;font-size: 16px;&quot; face=&quot;Times New Roman&quot;&gt;Bert Embedding Module&lt;/font&gt;" style="rounded=1;whiteSpace=wrap;html=1;fillColor=#dae8fc;strokeColor=#6c8ebf;" parent="1" vertex="1">
          <mxGeometry x="133.38" y="260" width="188.75" height="40" as="geometry" />
        </mxCell>
        <mxCell id="bMq4PvRFzcCB6mcYarQN-5" value="" style="endArrow=classic;html=1;rounded=0;entryX=0.5;entryY=1;entryDx=0;entryDy=0;exitX=0.5;exitY=0;exitDx=0;exitDy=0;" parent="1" source="bMq4PvRFzcCB6mcYarQN-9" target="AXfbNB8ekgTJsQT6Qloi-34" edge="1">
          <mxGeometry width="50" height="50" relative="1" as="geometry">
            <mxPoint x="439" y="351" as="sourcePoint" />
            <mxPoint x="439" y="311" as="targetPoint" />
          </mxGeometry>
        </mxCell>
        <mxCell id="bMq4PvRFzcCB6mcYarQN-9" value="&lt;font style=&quot;font-size: 16px;&quot; face=&quot;Times New Roman&quot;&gt;Random Number Generator&lt;/font&gt;" style="rounded=1;whiteSpace=wrap;html=1;fillColor=#d5e8d4;strokeColor=#82b366;" parent="1" vertex="1">
          <mxGeometry x="366.5" y="312" width="145" height="42" as="geometry" />
        </mxCell>
        <mxCell id="p4hFlMSA92Uj2K0E0k4X-3" style="edgeStyle=orthogonalEdgeStyle;rounded=0;orthogonalLoop=1;jettySize=auto;html=1;exitX=0.5;exitY=0;exitDx=0;exitDy=0;entryX=0.5;entryY=1;entryDx=0;entryDy=0;" parent="1" source="p4hFlMSA92Uj2K0E0k4X-2" target="bMq4PvRFzcCB6mcYarQN-1" edge="1">
          <mxGeometry relative="1" as="geometry" />
        </mxCell>
        <mxCell id="p4hFlMSA92Uj2K0E0k4X-2" value="&lt;font style=&quot;font-size: 16px;&quot; face=&quot;Times New Roman&quot;&gt;$$C^t$$&lt;/font&gt;" style="rounded=1;whiteSpace=wrap;html=1;fillColor=#f5f5f5;strokeColor=#666666;fontColor=#333333;" parent="1" vertex="1">
          <mxGeometry x="175.38" y="318" width="104.75" height="30" as="geometry" />
        </mxCell>
        <mxCell id="p4hFlMSA92Uj2K0E0k4X-9" value="&lt;span style=&quot;color: rgb(0, 0, 0); font-family: Helvetica; font-size: 14px; font-style: normal; font-variant-ligatures: normal; font-variant-caps: normal; font-weight: 400; letter-spacing: normal; orphans: 2; text-align: center; text-indent: 0px; text-transform: none; widows: 2; word-spacing: 0px; -webkit-text-stroke-width: 0px; background-color: rgb(251, 251, 251); text-decoration-thickness: initial; text-decoration-style: initial; text-decoration-color: initial; float: none; display: inline !important;&quot;&gt;$$M_{poly}$$&lt;br&gt;&lt;/span&gt;" style="text;whiteSpace=wrap;html=1;" parent="1" vertex="1">
          <mxGeometry x="440" y="242" width="58.5" height="40" as="geometry" />
        </mxCell>
        <mxCell id="p4hFlMSA92Uj2K0E0k4X-10" value="&lt;span style=&quot;color: rgb(0, 0, 0); font-family: Helvetica; font-style: normal; font-variant-ligatures: normal; font-variant-caps: normal; font-weight: 400; letter-spacing: normal; orphans: 2; text-align: center; text-indent: 0px; text-transform: none; widows: 2; word-spacing: 0px; -webkit-text-stroke-width: 0px; background-color: rgb(251, 251, 251); text-decoration-thickness: initial; text-decoration-style: initial; text-decoration-color: initial; float: none; display: inline !important;&quot;&gt;&lt;font style=&quot;font-size: 12px;&quot;&gt;$$[b,p,D]$$&lt;/font&gt;&lt;/span&gt;" style="text;whiteSpace=wrap;html=1;" parent="1" vertex="1">
          <mxGeometry x="440" y="272" width="170" height="40" as="geometry" />
        </mxCell>
      </root>
    </mxGraphModel>
  </diagram>
</mxfile>
